#!OML:ASF Y:\EmotionMaleHayes\Project 1\Capture day 1\Session 1\Male1.ASF
:FULLY-SPECIFIED
:DEGREES
1005
root 8.27195 16.8672 10.6122 715.418 0.188502 712.607
lowerback 7.50151 2.72609 6.28152
upperback 1.96169 4.14714 1.8469
thorax -1.85699 2.05312 -1.96477
lowerneck -21.2755 -1.47012 0.0615238
upperneck 19.0119 -2.00283 -0.190277
head 9.51281 -0.9466 -0.360333
rclavicle 7.65321e-015 2.34566e-014
rhumerus -23.0274 10.2458 -83.6815
rradius 40.0439
rwrist -2.39159
rhand -12.7618 -34.3674
rfingers 7.12502
rthumb 13.3228 -63.9216
lclavicle 7.65321e-015 2.34566e-014
lhumerus -46.7332 -3.84971 88.0056
lradius 41.2671
lwrist 3.17215
lhand -16.5369 -24.1423
lfingers 7.12502
lthumb 9.68214 5.61521
rfemur 16.6937 -5.18515 27.8412
rtibia 5.74955
rfoot -17.9472 2.47834
rtoes 16.6706
lfemur -16.4353 22.8569 -13.434
ltibia 16.1428
lfoot -14.5206 23.5902
ltoes 11.0281
1006
root 8.26854 16.8528 10.6958 715.439 0.342213 712.322
lowerback 7.41676 2.69202 6.33231
upperback 1.97625 4.10145 1.97735
thorax -1.80445 2.03208 -1.84956
lowerneck -21.4048 -1.50252 -0.0478877
upperneck 19.0894 -2.02554 -0.136407
head 9.56503 -0.958263 -0.328548
rclavicle -1.87603e-014 1.13307e-014
rhumerus -22.7815 10.1894 -83.881
rradius 40.0505
rwrist -1.83868
rhand -12.3167 -33.9585
rfingers 7.12502
rthumb 13.7518 -63.484
lclavicle -1.87603e-014 1.13307e-014
lhumerus -46.8187 -3.66252 88.3022
lradius 41.2599
lwrist 2.62896
lhand -16.1525 -24.2958
lfingers 7.12502
lthumb 10.053 5.44405
rfemur 16.9329 -4.63335 28.4609
rtibia 5.79921
rfoot -18.3204 2.17638
rtoes 19.1523
lfemur -16.3423 23.9219 -13.5462
ltibia 15.06
lfoot -14.1528 24.9136
ltoes 11.1366
1007
root 8.26606 16.8362 10.7826 715.408 0.503627 711.811
lowerback 7.37092 2.62388 6.68849
upperback 1.98642 4.03667 2.13044
thorax -1.75931 2.00054 -1.88034
lowerneck -21.4638 -1.50512 -0.134285
upperneck 19.1155 -2.00362 -0.126287
head 9.58589 -0.953114 -0.308431
rclavicle 4.46893e-014 3.85642e-014
rhumerus -22.6077 10.3417 -84.1918
rradius 40.1598
rwrist -1.69633
rhand -12.2234 -33.8896
rfingers 7.12502
rthumb 13.8417 -63.409
lclavicle 4.46893e-014 3.85642e-014
lhumerus -46.8668 -3.34294 88.5072
lradius 41.1343
lwrist 2.04555
lhand -15.8779 -24.3472
lfingers 7.12502
lthumb 10.318 5.37971
rfemur 17.1921 -4.51114 29.1403
rtibia 5.96427
rfoot -18.6668 1.9871
rtoes 19.4428
lfemur -16.1729 24.8169 -13.3294
ltibia 14.1032
lfoot -14.2 26.4044
ltoes 12.7997
1008
root 8.2692 16.8207 10.8665 715.442 0.799484 711.337
lowerback 7.32049 2.51576 7.13312
upperback 1.93233 3.92543 2.17256
thorax -1.76859 1.94282 -2.07265
lowerneck -21.4323 -1.45876 0.0550421
upperneck 19.0604 -1.99765 -0.138373
head 9.5586 -0.937927 -0.342146
rclavicle -3.95333e-014 -3.39922e-014
rhumerus -22.5153 11.1705 -84.6527
rradius 40.2962
rwrist -2.33353
rhand -12.5368 -34.2153
rfingers 7.12502
rthumb 13.5397 -63.7551
lclavicle -3.95333e-014 -3.39922e-014
lhumerus -46.9555 -3.60155 88.7252
lradius 41.0689
lwrist 2.13465
lhand -15.7926 -24.3174
lfingers 7.12502
lthumb 10.4002 5.40542
rfemur 17.3437 -4.56201 29.7808
rtibia 6.15131
rfoot -18.9514 1.43161
rtoes 16.9107
lfemur -16.1278 25.3246 -13.2092
ltibia 13.2744
lfoot -15.944 27.7991
ltoes 19.7411
1009
root 8.27441 16.8073 10.9504 715.584 1.10434 710.862
lowerback 7.16399 2.451 7.45896
upperback 1.8397 3.8571 2.29382
thorax -1.77018 1.90595 -2.11653
lowerneck -21.4783 -1.43544 0.220957
upperneck 19.115 -1.99375 -0.246743
head 9.58295 -0.936239 -0.407302
rclavicle 5.99957e-014 -2.98177e-015
rhumerus -22.512 12.1091 -84.9601
rradius 40.4377
rwrist -3.03616
rhand -12.9954 -34.5558
rfingers 7.12502
rthumb 13.0977 -64.1245
lclavicle 5.99957e-014 -2.98177e-015
lhumerus -47.0363 -3.8952 89.0155
lradius 41.0225
lwrist 2.37906
lhand -15.1277 -24.2352
lfingers 7.12502
lthumb 11.0416 5.45434
rfemur 17.3115 -4.69178 30.3772
rtibia 6.42894
rfoot -19.3207 1.10668
rtoes 15.236
lfemur -16.1428 25.4497 -13.1348
ltibia 12.4771
lfoot -16.3347 29.2941
ltoes 22.2739
